<mxfile host="65bd71144e">
    <diagram id="61Zt1ZswU9080YyVX2rb" name="Page-1">
        <mxGraphModel dx="1140" dy="884" grid="0" gridSize="11" guides="1" tooltips="1" connect="1" arrows="1" fold="1" page="1" pageScale="1" pageWidth="1100" pageHeight="850" background="#ffffff" math="0" shadow="1">
            <root>
                <mxCell id="0"/>
                <mxCell id="1" parent="0"/>
                <mxCell id="6" value="" style="rounded=1;whiteSpace=wrap;html=1;fontFamily=Verdana;fontSize=14;fillColor=#cce5ff;strokeColor=#36393d;" parent="1" vertex="1">
                    <mxGeometry x="310" y="400" width="239.62" height="367" as="geometry"/>
                </mxCell>
                <mxCell id="65" value="" style="edgeStyle=none;shape=flexArrow;html=1;strokeColor=default;strokeWidth=0;fontFamily=Verdana;fontSize=14;fontColor=#000000;sourcePerimeterSpacing=-1;targetPerimeterSpacing=4;elbow=vertical;" parent="1" source="62" target="64" edge="1">
                    <mxGeometry relative="1" as="geometry"/>
                </mxCell>
                <mxCell id="62" value="" style="rounded=1;whiteSpace=wrap;html=1;fontFamily=Verdana;fontSize=14;fillColor=#eeeeee;strokeColor=#36393d;" parent="1" vertex="1">
                    <mxGeometry x="338" y="437.5" width="192" height="202.5" as="geometry"/>
                </mxCell>
                <mxCell id="7" value="&lt;b&gt;Server (Flask)&lt;/b&gt;" style="text;html=1;strokeColor=none;fillColor=none;align=center;verticalAlign=middle;whiteSpace=wrap;rounded=0;fontFamily=Verdana;fontSize=14;fontColor=#000000;" parent="1" vertex="1">
                    <mxGeometry x="370.75" y="730" width="117" height="30" as="geometry"/>
                </mxCell>
                <mxCell id="8" value="" style="rounded=1;whiteSpace=wrap;html=1;fontFamily=Verdana;fontSize=14;fillColor=#cdeb8b;strokeColor=#36393d;imageWidth=24;" parent="1" vertex="1">
                    <mxGeometry x="710" y="397.5" width="240" height="372.5" as="geometry"/>
                </mxCell>
                <mxCell id="9" value="&lt;b&gt;Browser&lt;/b&gt;" style="text;html=1;strokeColor=none;fillColor=none;align=center;verticalAlign=middle;whiteSpace=wrap;rounded=0;fontFamily=Verdana;fontSize=14;fontColor=#000000;" parent="1" vertex="1">
                    <mxGeometry x="783.5" y="734" width="95" height="30" as="geometry"/>
                </mxCell>
                <mxCell id="10" value="" style="rounded=1;whiteSpace=wrap;html=1;fontFamily=Verdana;fontSize=14;fillColor=#fff2cc;strokeColor=none;" parent="1" vertex="1">
                    <mxGeometry x="351.5" y="460" width="162.5" height="120" as="geometry"/>
                </mxCell>
                <mxCell id="37" value="" style="rounded=1;whiteSpace=wrap;html=1;fontFamily=Verdana;fontSize=14;fillColor=#ffcc99;strokeColor=#36393d;arcSize=16;" parent="1" vertex="1">
                    <mxGeometry x="748.75" y="440" width="162.5" height="135" as="geometry"/>
                </mxCell>
                <mxCell id="38" value="&lt;b&gt;&lt;font style=&quot;font-size: 14px;&quot;&gt;Frontend&lt;br&gt;(HTML/CSS/JS)&lt;/font&gt;&lt;/b&gt;" style="text;html=1;strokeColor=none;fillColor=none;align=center;verticalAlign=middle;whiteSpace=wrap;rounded=0;fontFamily=Verdana;fontSize=12;fontColor=#000000;" parent="1" vertex="1">
                    <mxGeometry x="776" y="534.5" width="110" height="30" as="geometry"/>
                </mxCell>
                <mxCell id="11" value="&lt;b&gt;Backend (Flask)&lt;/b&gt;" style="text;html=1;strokeColor=none;fillColor=none;align=center;verticalAlign=middle;whiteSpace=wrap;rounded=0;fontFamily=Verdana;fontSize=14;fontColor=#000000;" parent="1" vertex="1">
                    <mxGeometry x="359.06" y="537.5" width="152" height="50" as="geometry"/>
                </mxCell>
                <mxCell id="41" value="&lt;font color=&quot;#000000&quot;&gt;&lt;b&gt;Database&amp;nbsp;&lt;br&gt;(MySQL)&lt;/b&gt;&lt;/font&gt;" style="shape=datastore;whiteSpace=wrap;html=1;fontFamily=Verdana;fontSize=14;fillColor=#b0e3e6;strokeColor=#0e8088;" parent="1" vertex="1">
                    <mxGeometry x="40" y="475" width="160" height="155" as="geometry"/>
                </mxCell>
                <mxCell id="42" style="edgeStyle=none;shape=flexArrow;html=1;exitX=0;exitY=0;exitDx=0;exitDy=0;strokeColor=default;strokeWidth=0;fontFamily=Verdana;fontSize=12;fontColor=#000000;sourcePerimeterSpacing=-1;targetPerimeterSpacing=4;elbow=vertical;" parent="1" source="43" edge="1">
                    <mxGeometry relative="1" as="geometry">
                        <mxPoint x="330" y="52.5" as="targetPoint"/>
                    </mxGeometry>
                </mxCell>
                <mxCell id="43" value="" style="rounded=1;whiteSpace=wrap;html=1;fontFamily=Verdana;fontSize=14;fillColor=#cce5ff;strokeColor=#36393d;" parent="1" vertex="1">
                    <mxGeometry x="310" y="32.5" width="239.62" height="347.5" as="geometry"/>
                </mxCell>
                <mxCell id="84" value="" style="edgeStyle=none;shape=flexArrow;html=1;strokeColor=default;strokeWidth=0;fontFamily=Verdana;fontSize=10;fontColor=#000000;sourcePerimeterSpacing=-1;targetPerimeterSpacing=4;elbow=vertical;" parent="1" source="44" target="56" edge="1">
                    <mxGeometry relative="1" as="geometry"/>
                </mxCell>
                <mxCell id="44" value="&lt;b&gt;Server (Flask)&lt;/b&gt;" style="text;html=1;strokeColor=none;fillColor=none;align=center;verticalAlign=middle;whiteSpace=wrap;rounded=0;fontFamily=Verdana;fontSize=14;fontColor=#000000;" parent="1" vertex="1">
                    <mxGeometry x="355.75" y="350" width="147" height="30" as="geometry"/>
                </mxCell>
                <mxCell id="45" value="" style="rounded=1;whiteSpace=wrap;html=1;fontFamily=Verdana;fontSize=14;fillColor=#cdeb8b;strokeColor=#36393d;imageWidth=24;" parent="1" vertex="1">
                    <mxGeometry x="707.5" y="30" width="240" height="350" as="geometry"/>
                </mxCell>
                <mxCell id="46" value="&lt;b&gt;Browser&lt;/b&gt;" style="text;html=1;strokeColor=none;fillColor=none;align=center;verticalAlign=middle;whiteSpace=wrap;rounded=0;fontFamily=Verdana;fontSize=14;fontColor=#000000;" parent="1" vertex="1">
                    <mxGeometry x="780" y="343" width="95" height="30" as="geometry"/>
                </mxCell>
                <mxCell id="48" value="" style="edgeStyle=none;shape=flexArrow;html=1;strokeColor=default;strokeWidth=0;fontFamily=Verdana;fontSize=12;fontColor=#000000;sourcePerimeterSpacing=-1;targetPerimeterSpacing=4;elbow=vertical;" parent="1" edge="1">
                    <mxGeometry relative="1" as="geometry">
                        <mxPoint x="505.4399999999998" y="236.9737993920969" as="sourcePoint"/>
                        <mxPoint x="528" y="237.11094224923977" as="targetPoint"/>
                    </mxGeometry>
                </mxCell>
                <mxCell id="54" value="&lt;font color=&quot;#000000&quot;&gt;&lt;b&gt;Database&amp;nbsp;&lt;br&gt;(MySQL)&lt;/b&gt;&lt;/font&gt;" style="shape=datastore;whiteSpace=wrap;html=1;fontFamily=Verdana;fontSize=14;fillColor=#b0e3e6;strokeColor=#0e8088;" parent="1" vertex="1">
                    <mxGeometry x="40" y="120" width="160" height="155" as="geometry"/>
                </mxCell>
                <mxCell id="60" value="" style="edgeStyle=none;shape=flexArrow;html=1;strokeColor=default;strokeWidth=0;fontFamily=Verdana;fontSize=14;fontColor=#000000;sourcePerimeterSpacing=-1;targetPerimeterSpacing=4;elbow=vertical;" parent="1" source="56" target="59" edge="1">
                    <mxGeometry relative="1" as="geometry"/>
                </mxCell>
                <mxCell id="56" value="" style="rounded=1;whiteSpace=wrap;html=1;fontFamily=Verdana;fontSize=14;fillColor=#ffcc99;strokeColor=#36393d;" parent="1" vertex="1">
                    <mxGeometry x="349.09" y="250" width="161.44" height="90" as="geometry"/>
                </mxCell>
                <mxCell id="57" value="&lt;b&gt;Frontend of app&lt;/b&gt;" style="text;html=1;strokeColor=none;fillColor=none;align=center;verticalAlign=middle;whiteSpace=wrap;rounded=0;fontFamily=Verdana;fontSize=14;fontColor=#000000;" parent="1" vertex="1">
                    <mxGeometry x="375.06" y="280" width="120" height="30" as="geometry"/>
                </mxCell>
                <mxCell id="86" value="" style="edgeStyle=none;html=1;fontSize=12;fontColor=#000000;" edge="1" parent="1" source="59" target="85">
                    <mxGeometry relative="1" as="geometry"/>
                </mxCell>
                <mxCell id="59" value="&lt;font color=&quot;#000000&quot;&gt;Initial request &lt;br&gt;returns home page.&lt;/font&gt;" style="shape=singleArrow;whiteSpace=wrap;html=1;arrowWidth=0.6888888888888886;arrowSize=0.3309337227918965;fontSize=14;fontFamily=Verdana;fillColor=#ffcc99;strokeColor=#36393d;rounded=1;align=center;" parent="1" vertex="1">
                    <mxGeometry x="505.03" y="257.5" width="202.47" height="75" as="geometry"/>
                </mxCell>
                <mxCell id="61" value="&lt;font color=&quot;#000000&quot;&gt;Database API&amp;nbsp;&lt;/font&gt;" style="rounded=1;whiteSpace=wrap;html=1;fontFamily=Verdana;fontSize=14;fillColor=#ffff88;strokeColor=#36393d;" parent="1" vertex="1">
                    <mxGeometry x="372.75" y="497.5" width="120" height="40" as="geometry"/>
                </mxCell>
                <mxCell id="63" value="&lt;b&gt;REST API&lt;/b&gt;" style="text;html=1;strokeColor=none;fillColor=none;align=center;verticalAlign=middle;whiteSpace=wrap;rounded=0;fontFamily=Verdana;fontSize=14;fontColor=#000000;" parent="1" vertex="1">
                    <mxGeometry x="390.14" y="610" width="80.72" height="30" as="geometry"/>
                </mxCell>
                <mxCell id="64" value="&lt;font color=&quot;#000000&quot;&gt;Result of Request&lt;/font&gt;" style="shape=singleArrow;whiteSpace=wrap;html=1;arrowWidth=0.4225256631540666;arrowSize=0.4559338265528248;fontSize=14;fontFamily=Verdana;fillColor=#eeeeee;strokeColor=#36393d;rounded=1;" parent="1" vertex="1">
                    <mxGeometry x="525" y="541" width="180" height="107.5" as="geometry"/>
                </mxCell>
                <mxCell id="71" value="&lt;font color=&quot;#000000&quot;&gt;&lt;font style=&quot;font-size: 12px;&quot;&gt;API Request&lt;br&gt;(CRUD operations)&lt;/font&gt;&lt;br&gt;&lt;/font&gt;" style="shape=singleArrow;whiteSpace=wrap;html=1;arrowWidth=0.4225256631540666;arrowSize=0.4559338265528248;fontSize=14;fontFamily=Verdana;fillColor=#ffcc99;strokeColor=#36393d;rounded=1;direction=west;" parent="1" vertex="1">
                    <mxGeometry x="556" y="421" width="198.75" height="120" as="geometry"/>
                </mxCell>
                <mxCell id="72" value="&lt;font color=&quot;#000000&quot;&gt;&lt;font style=&quot;font-size: 12px;&quot;&gt;Result of DB query&lt;/font&gt;&lt;br&gt;&lt;/font&gt;" style="shape=singleArrow;whiteSpace=wrap;html=1;arrowWidth=0.244443547692842;arrowSize=0.5868532293288888;fontSize=14;fontFamily=Verdana;fillColor=#b0e3e6;strokeColor=#0e8088;rounded=1;direction=east;" parent="1" vertex="1">
                    <mxGeometry x="193.25" y="557.5" width="116.75" height="107.5" as="geometry"/>
                </mxCell>
                <mxCell id="74" value="&lt;font color=&quot;#000000&quot;&gt;&lt;font style=&quot;font-size: 12px;&quot;&gt;Database query&lt;/font&gt;&lt;br&gt;&lt;/font&gt;" style="shape=singleArrow;whiteSpace=wrap;html=1;arrowWidth=0.271319012309231;arrowSize=0.3501080568595842;fontSize=14;fontFamily=Verdana;fillColor=#ffff88;strokeColor=#36393d;rounded=1;direction=west;" parent="1" vertex="1">
                    <mxGeometry x="214" y="471.5" width="167.25" height="86" as="geometry"/>
                </mxCell>
                <mxCell id="79" value="" style="rounded=1;whiteSpace=wrap;html=1;fontFamily=Verdana;fontSize=14;fillColor=#eeeeee;strokeColor=#36393d;" parent="1" vertex="1">
                    <mxGeometry x="336.75" y="40" width="192" height="202.5" as="geometry"/>
                </mxCell>
                <mxCell id="80" value="" style="rounded=1;whiteSpace=wrap;html=1;fontFamily=Verdana;fontSize=14;fillColor=#fff2cc;strokeColor=none;" parent="1" vertex="1">
                    <mxGeometry x="350.25" y="62.5" width="162.5" height="120" as="geometry"/>
                </mxCell>
                <mxCell id="81" value="&lt;b&gt;Backend (Flask)&lt;/b&gt;" style="text;html=1;strokeColor=none;fillColor=none;align=center;verticalAlign=middle;whiteSpace=wrap;rounded=0;fontFamily=Verdana;fontSize=14;fontColor=#000000;" parent="1" vertex="1">
                    <mxGeometry x="367" y="140" width="152" height="50" as="geometry"/>
                </mxCell>
                <mxCell id="82" value="&lt;font color=&quot;#000000&quot;&gt;Database API&amp;nbsp;&lt;/font&gt;" style="rounded=1;whiteSpace=wrap;html=1;fontFamily=Verdana;fontSize=14;fillColor=#ffff88;strokeColor=#36393d;" parent="1" vertex="1">
                    <mxGeometry x="371.5" y="100" width="120" height="40" as="geometry"/>
                </mxCell>
                <mxCell id="83" value="&lt;b&gt;REST API&lt;/b&gt;" style="text;html=1;strokeColor=none;fillColor=none;align=center;verticalAlign=middle;whiteSpace=wrap;rounded=0;fontFamily=Verdana;fontSize=14;fontColor=#000000;" parent="1" vertex="1">
                    <mxGeometry x="388.89" y="212.5" width="80.72" height="30" as="geometry"/>
                </mxCell>
                <mxCell id="85" value="&lt;font color=&quot;#000000&quot;&gt;Initial Request for app&lt;/font&gt;" style="shape=singleArrow;whiteSpace=wrap;html=1;arrowWidth=0.4;arrowSize=0.4;fontSize=14;fontFamily=Verdana;fillColor=#cdeb8b;strokeColor=#36393d;rounded=1;direction=west;" vertex="1" parent="1">
                    <mxGeometry x="559" y="84" width="188" height="77" as="geometry"/>
                </mxCell>
                <mxCell id="87" value="&lt;font color=&quot;#000000&quot;&gt;&lt;b&gt;Frontend Template&lt;br&gt;of App&lt;/b&gt;&lt;/font&gt;" style="rounded=1;whiteSpace=wrap;html=1;fontFamily=Verdana;fontSize=14;fillColor=#ffcc99;strokeColor=#36393d;" vertex="1" parent="1">
                    <mxGeometry x="348.53" y="645" width="161.44" height="90" as="geometry"/>
                </mxCell>
            </root>
        </mxGraphModel>
    </diagram>
</mxfile>